{"accessors":[{"bufferView":0,"componentType":5126,"count":97922,"max":[1.00767993927002,1.02921414375305,1.05915772914886],"min":[-1.04682147502899,-1.03439712524414,-1.03870868682861],"normalized":false,"type":"VEC3"},{"bufferView":1,"componentType":5126,"count":97922,"max":[0.70710676908493,0.707168936729431,0.707102417945862,-1.0],"min":[-1.0,-1.0,-1.0,-1.0],"normalized":false,"type":"VEC4"},{"bufferView":2,"componentType":5126,"count":97922,"max":[0.999756693840027,0.999913096427917,0.999848186969757],"min":[-0.99992299079895,-0.999855637550354,-0.999999582767487],"normalized":false,"type":"VEC3"},{"bufferView":3,"componentType":5126,"count":97922,"max":[1.0,1.0],"min":[0.0,0.0],"normalized":false,"type":"VEC2"},{"bufferView":4,"componentType":5125,"count":147456,"max":[97921.0],"min":[0.0],"normalized":false,"type":"SCALAR"},{"bufferView":5,"componentType":5126,"count":147456,"max":[1.00769996643066,1.0291999578476,1.05919992923737],"min":[-1.04680001735687,-1.03439998626709,-1.03869998455048],"normalized":false,"type":"VEC3"},{"bufferView":6,"componentType":5125,"count":147456,"max":[147455.0],"min":[0.0],"normalized":false,"type":"SCALAR"}],"asset":{"generator":"Godot Engine v4.5.beta3.mono.official@4d1f26e1fd1fa46f2223fe0b6ac300744bf79b88","version":"2.0"},"bufferViews":[{"buffer":0,"byteLength":1175064,"byteStride":12,"target":34962},{"buffer":0,"byteLength":1566752,"byteOffset":1175064,"byteStride":16,"target":34962},{"buffer":0,"byteLength":1175064,"byteOffset":2741816,"byteStride":12,"target":34962},{"buffer":0,"byteLength":783376,"byteOffset":3916880,"byteStride":8,"target":34962},{"buffer":0,"byteLength":589824,"byteOffset":4700256,"target":34963},{"buffer":0,"byteLength":1769472,"byteOffset":5290080,"byteStride":12,"target":34962},{"buffer":0,"byteLength":589824,"byteOffset":7059552,"target":34963}],"buffers":[{"byteLength":7649376,"uri":"00000000-0000-0000-0000-0000000000000.bin"}],"extensions":{"OMI_physics_shape":{"shapes":[{"trimesh":{"mesh":1},"type":"trimesh"},{"sphere":{"radius":3001.0},"type":"sphere"}]}},"extensionsUsed":["GODOT_single_root","OMI_physics_body","OMI_physics_shape"],"materials":[{}],"meshes":[{"primitives":[{"attributes":{"NORMAL":2,"POSITION":0,"TANGENT":1,"TEXCOORD_0":3},"indices":4,"material":0,"mode":4}]},{"primitives":[{"attributes":{"POSITION":5},"indices":6,"mode":4}]}],"nodes":[{"children":[1,4],"name":"00000000-0000-0000-0000-000000000000"},{"children":[2],"mesh":0,"name":"_MeshInstance3D_10"},{"children":[3],"extensions":{"OMI_physics_body":{"motion":{"type":"static"}}},"name":"_StaticBody3D_13"},{"extensions":{"OMI_physics_body":{"collider":{"shape":0}}},"name":"_CollisionShape3D_14"},{"children":[5],"extensions":{"OMI_physics_body":{"trigger":{"nodes":[5.0]}}},"name":"_Area3D_11"},{"extensions":{"OMI_physics_body":{"trigger":null}},"name":"_CollisionShape3D_12"}],"scene":0,"scenes":[{"nodes":[0]}]}